<?xml version="1.0" encoding="UTF-8"?>
<!DOCTYPE svg PUBLIC "-//W3C//DTD SVG 1.1//EN" "http://www.w3.org/Graphics/SVG/1.1/DTD/svg11.dtd">
<svg xmlns="http://www.w3.org/2000/svg" version="1.1" width="512px" height="512px" style="shape-rendering:geometricPrecision; text-rendering:geometricPrecision; image-rendering:optimizeQuality; fill-rule:evenodd; clip-rule:evenodd" xmlns:xlink="http://www.w3.org/1999/xlink">
<g><path style="opacity:0.986" fill="#3b4551" d="M 191.5,37.5 C 231.384,34.215 267.051,44.715 298.5,69C 305.365,75.5307 311.865,82.364 318,89.5C 365.249,78.4722 402.582,92.8056 430,132.5C 436.311,143.433 440.644,155.099 443,167.5C 493.606,192.048 513.273,232.048 502,287.5C 488.857,327.505 461.69,350.505 420.5,356.5C 422.388,342.94 422.388,329.273 420.5,315.5C 442.751,309.75 456.917,295.75 463,273.5C 467.468,234.617 450.634,210.45 412.5,201C 408.544,198.038 405.711,194.204 404,189.5C 403.286,155.468 386.453,134.635 353.5,127C 340.434,125.48 328.101,127.813 316.5,134C 307.019,136.502 299.185,134.002 293,126.5C 273.41,94.6951 244.743,78.6951 207,78.5C 167.005,79.1543 136.338,96.1543 115,129.5C 105.522,146.557 102.355,164.724 105.5,184C 105.005,191.664 101.671,197.664 95.5,202C 57.3022,213.196 41.8022,238.363 49,277.5C 56.02,297.69 69.8534,310.356 90.5,315.5C 88.6044,329.332 88.6044,342.999 90.5,356.5C 60.2325,352.937 36.7325,338.27 20,312.5C 0.694096,277.504 0.694096,242.504 20,207.5C 30.614,191.05 44.7807,178.717 62.5,170.5C 68.4981,105.662 102.498,63.1622 164.5,43C 173.551,40.7187 182.551,38.8854 191.5,37.5 Z"/></g>
<g><path style="opacity:0.98" fill="#2d79bd" d="M 247.5,202.5 C 309.856,202.573 354.356,230.573 381,286.5C 399.781,338.369 391.781,385.703 357,428.5C 311.175,474.504 258.008,485.337 197.5,461C 141.902,431.324 116.402,384.824 121,321.5C 130.533,264.309 162.699,226.476 217.5,208C 227.515,205.456 237.515,203.623 247.5,202.5 Z M 252.5,239.5 C 294.828,240.736 325.661,260.069 345,297.5C 360.278,335.489 355.278,370.489 330,402.5C 299.344,434.622 262.844,443.789 220.5,430C 180.562,412.647 159.562,382.147 157.5,338.5C 159.958,291.542 183.291,260.042 227.5,244C 235.86,241.831 244.194,240.331 252.5,239.5 Z"/></g>
<g><path style="opacity:0.983" fill="#2d79be" d="M 250.5,275.5 C 262.251,274.12 270.418,278.787 275,289.5C 275.5,298.827 275.666,308.161 275.5,317.5C 285.566,317.105 295.566,317.605 305.5,319C 317.732,325.693 321.232,335.527 316,348.5C 313.778,352.388 310.612,355.221 306.5,357C 296.246,358.426 285.912,358.926 275.5,358.5C 275.666,368.172 275.5,377.839 275,387.5C 271.469,396.192 264.969,400.858 255.5,401.5C 246.031,400.858 239.531,396.192 236,387.5C 235.5,377.839 235.334,368.172 235.5,358.5C 225.088,358.926 214.754,358.426 204.5,357C 192.421,349.529 189.588,339.362 196,326.5C 198.592,323.238 201.759,320.738 205.5,319C 215.434,317.605 225.434,317.105 235.5,317.5C 235.074,307.088 235.574,296.754 237,286.5C 240.213,281.107 244.713,277.441 250.5,275.5 Z"/></g>
</svg>
