<?xml version="1.0" encoding="UTF-8"?>
<!DOCTYPE svg PUBLIC "-//W3C//DTD SVG 1.1//EN" "http://www.w3.org/Graphics/SVG/1.1/DTD/svg11.dtd">
<svg xmlns="http://www.w3.org/2000/svg" version="1.1" width="512px" height="512px" style="shape-rendering:geometricPrecision; text-rendering:geometricPrecision; image-rendering:optimizeQuality; fill-rule:evenodd; clip-rule:evenodd" xmlns:xlink="http://www.w3.org/1999/xlink">
<g><path style="opacity:0.975" fill="#b115e1" d="M 427.5,64.5 C 311.961,65.1705 196.294,65.8372 80.5,66.5C 97.753,52.0537 117.753,43.887 140.5,42C 217.167,41.3333 293.833,41.3333 370.5,42C 392.025,43.5549 411.025,51.0549 427.5,64.5 Z"/></g>
<g><path style="opacity:0.998" fill="#ad15e1" d="M 427.5,64.5 C 431.817,67.1517 435.484,70.485 438.5,74.5C 316.43,74.8313 194.43,74.498 72.5,73.5C 75.1413,71.1956 77.808,68.8623 80.5,66.5C 196.294,65.8372 311.961,65.1705 427.5,64.5 Z"/></g>
<g><path style="opacity:0.997" fill="#aa15e0" d="M 72.5,73.5 C 194.43,74.498 316.43,74.8313 438.5,74.5C 442.544,77.5425 445.877,81.2092 448.5,85.5C 425.5,86.1667 402.5,86.8333 379.5,87.5C 376.834,87.067 374.168,86.567 371.5,86C 294.167,85.3333 216.833,85.3333 139.5,86C 137.134,86.4396 134.801,86.9396 132.5,87.5C 109.006,86.5024 85.3392,86.1691 61.5,86.5C 64.7912,81.8733 68.4579,77.54 72.5,73.5 Z"/></g>
<g><path style="opacity:0.987" fill="#a515e0" d="M 61.5,86.5 C 85.3392,86.1691 109.006,86.5024 132.5,87.5C 119.909,91.1268 109.242,97.7935 100.5,107.5C 83.8333,107.5 67.1667,107.5 50.5,107.5C 52.8829,99.7955 56.5495,92.7955 61.5,86.5 Z"/></g>
<g><path style="opacity:0.988" fill="#a516e0" d="M 448.5,85.5 C 452.921,91.3344 456.588,97.6678 459.5,104.5C 459.5,105.5 459.5,106.5 459.5,107.5C 443.325,107.17 427.325,107.504 411.5,108.5C 402.82,98.4919 392.153,91.4919 379.5,87.5C 402.5,86.8333 425.5,86.1667 448.5,85.5 Z"/></g>
<g><path style="opacity:0.988" fill="#9f15e0" d="M 50.5,107.5 C 67.1667,107.5 83.8333,107.5 100.5,107.5C 96.6661,112.497 93.3328,117.83 90.5,123.5C 75.0888,123.183 59.7554,123.517 44.5,124.5C 45.7313,118.468 47.7313,112.801 50.5,107.5 Z"/></g>
<g><path style="opacity:0.986" fill="#9f16e0" d="M 459.5,104.5 C 462.473,110.085 464.473,116.085 465.5,122.5C 450.676,123.496 435.676,123.829 420.5,123.5C 417.752,118.334 414.752,113.334 411.5,108.5C 427.325,107.504 443.325,107.17 459.5,107.5C 459.5,106.5 459.5,105.5 459.5,104.5 Z"/></g>
<g><path style="opacity:0.991" fill="#9815e0" d="M 90.5,123.5 C 87.8965,129.914 86.2298,136.581 85.5,143.5C 70.8333,142.167 56.1667,142.167 41.5,143.5C 42.1365,137.101 43.1365,130.768 44.5,124.5C 59.7554,123.517 75.0888,123.183 90.5,123.5 Z"/></g>
<g><path style="opacity:0.988" fill="#9916e0" d="M 465.5,122.5 C 467.762,128.165 468.762,134.165 468.5,140.5C 454.539,142.483 440.206,143.15 425.5,142.5C 424.611,135.945 422.945,129.612 420.5,123.5C 435.676,123.829 450.676,123.496 465.5,122.5 Z"/></g>
<g><path style="opacity:0.972" fill="#9815e0" d="M 169.5,141.5 C 155.912,142.481 142.246,142.815 128.5,142.5C 131.564,132.535 138.397,127.535 149,127.5C 158.972,127.648 165.805,132.314 169.5,141.5 Z"/></g>
<g><path style="opacity:0.995" fill="#9215e0" d="M 85.5,143.5 C 85.5,149.5 85.5,155.5 85.5,161.5C 84.596,160.791 84.2627,159.791 84.5,158.5C 70.5,158.5 56.5,158.5 42.5,158.5C 42.7373,159.791 42.404,160.791 41.5,161.5C 41.5,155.5 41.5,149.5 41.5,143.5C 56.1667,142.167 70.8333,142.167 85.5,143.5 Z"/></g>
<g><path style="opacity:0.987" fill="#9115e0" d="M 169.5,141.5 C 172.961,158.529 166.127,168.195 149,170.5C 138.609,170.092 131.609,165.092 128,155.5C 127.186,150.98 127.353,146.646 128.5,142.5C 142.246,142.815 155.912,142.481 169.5,141.5 Z"/></g>
<g><path style="opacity:0.993" fill="#9215e0" d="M 468.5,140.5 C 469.491,147.313 469.825,154.313 469.5,161.5C 468.596,160.791 468.263,159.791 468.5,158.5C 454.5,158.5 440.5,158.5 426.5,158.5C 426.737,159.791 426.404,160.791 425.5,161.5C 425.5,155.167 425.5,148.833 425.5,142.5C 440.206,143.15 454.539,142.483 468.5,140.5 Z"/></g>
<g><path style="opacity:0.986" fill="#8c16df" d="M 85.5,161.5 C 85.5,166.833 85.5,172.167 85.5,177.5C 84.596,176.791 84.2627,175.791 84.5,174.5C 70.5,174.5 56.5,174.5 42.5,174.5C 42.7373,175.791 42.404,176.791 41.5,177.5C 41.5,172.167 41.5,166.833 41.5,161.5C 42.404,160.791 42.7373,159.791 42.5,158.5C 56.5,158.5 70.5,158.5 84.5,158.5C 84.2627,159.791 84.596,160.791 85.5,161.5 Z"/></g>
<g><path style="opacity:0.986" fill="#8c16df" d="M 469.5,161.5 C 469.5,166.833 469.5,172.167 469.5,177.5C 468.596,176.791 468.263,175.791 468.5,174.5C 454.5,174.5 440.5,174.5 426.5,174.5C 426.737,175.791 426.404,176.791 425.5,177.5C 425.5,172.167 425.5,166.833 425.5,161.5C 426.404,160.791 426.737,159.791 426.5,158.5C 440.5,158.5 454.5,158.5 468.5,158.5C 468.263,159.791 468.596,160.791 469.5,161.5 Z"/></g>
<g><path style="opacity:0.97" fill="#8617de" d="M 85.5,177.5 C 85.5,182.833 85.5,188.167 85.5,193.5C 84.596,192.791 84.2627,191.791 84.5,190.5C 70.5,190.5 56.5,190.5 42.5,190.5C 42.7373,191.791 42.404,192.791 41.5,193.5C 41.5,188.167 41.5,182.833 41.5,177.5C 42.404,176.791 42.7373,175.791 42.5,174.5C 56.5,174.5 70.5,174.5 84.5,174.5C 84.2627,175.791 84.596,176.791 85.5,177.5 Z"/></g>
<g><path style="opacity:0.97" fill="#8617de" d="M 469.5,177.5 C 469.5,182.833 469.5,188.167 469.5,193.5C 468.596,192.791 468.263,191.791 468.5,190.5C 454.5,190.5 440.5,190.5 426.5,190.5C 426.737,191.791 426.404,192.791 425.5,193.5C 425.5,188.167 425.5,182.833 425.5,177.5C 426.404,176.791 426.737,175.791 426.5,174.5C 440.5,174.5 454.5,174.5 468.5,174.5C 468.263,175.791 468.596,176.791 469.5,177.5 Z"/></g>
<g><path style="opacity:0.974" fill="#8017de" d="M 85.5,193.5 C 85.5,198.833 85.5,204.167 85.5,209.5C 70.8333,209.5 56.1667,209.5 41.5,209.5C 41.5,204.167 41.5,198.833 41.5,193.5C 42.404,192.791 42.7373,191.791 42.5,190.5C 56.5,190.5 70.5,190.5 84.5,190.5C 84.2627,191.791 84.596,192.791 85.5,193.5 Z"/></g>
<g><path style="opacity:0.974" fill="#8017de" d="M 469.5,193.5 C 469.5,198.833 469.5,204.167 469.5,209.5C 454.833,209.5 440.167,209.5 425.5,209.5C 425.5,204.167 425.5,198.833 425.5,193.5C 426.404,192.791 426.737,191.791 426.5,190.5C 440.5,190.5 454.5,190.5 468.5,190.5C 468.263,191.791 468.596,192.791 469.5,193.5 Z"/></g>
<g><path style="opacity:0.97" fill="#7917de" d="M 41.5,209.5 C 56.1667,209.5 70.8333,209.5 85.5,209.5C 85.5,214.833 85.5,220.167 85.5,225.5C 70.8333,225.5 56.1667,225.5 41.5,225.5C 41.5,220.167 41.5,214.833 41.5,209.5 Z"/></g>
<g><path style="opacity:0.987" fill="#7916df" d="M 382.5,223.5 C 367.682,224.833 352.515,225.499 337,225.5C 321.663,225.5 306.496,225.167 291.5,224.5C 316.72,202.544 344.053,199.711 373.5,216C 376.665,218.335 379.665,220.835 382.5,223.5 Z"/></g>
<g><path style="opacity:0.97" fill="#7917de" d="M 425.5,209.5 C 440.167,209.5 454.833,209.5 469.5,209.5C 469.5,214.833 469.5,220.167 469.5,225.5C 454.833,225.5 440.167,225.5 425.5,225.5C 425.5,220.167 425.5,214.833 425.5,209.5 Z"/></g>
<g><path style="opacity:0.993" fill="#7316de" d="M 382.5,223.5 C 388.5,228.833 394.167,234.5 399.5,240.5C 356.997,240.832 314.663,240.499 272.5,239.5C 278.522,234.15 284.855,229.15 291.5,224.5C 306.496,225.167 321.663,225.5 337,225.5C 352.515,225.499 367.682,224.833 382.5,223.5 Z"/></g>
<g><path style="opacity:0.97" fill="#7317de" d="M 41.5,225.5 C 56.1667,225.5 70.8333,225.5 85.5,225.5C 85.5,230.5 85.5,235.5 85.5,240.5C 70.8333,240.5 56.1667,240.5 41.5,240.5C 41.5,235.5 41.5,230.5 41.5,225.5 Z"/></g>
<g><path style="opacity:0.97" fill="#7317de" d="M 425.5,225.5 C 440.167,225.5 454.833,225.5 469.5,225.5C 469.5,230.5 469.5,235.5 469.5,240.5C 454.833,240.5 440.167,240.5 425.5,240.5C 425.5,235.5 425.5,230.5 425.5,225.5 Z"/></g>
<g><path style="opacity:0.97" fill="#6d17de" d="M 41.5,240.5 C 56.1667,240.5 70.8333,240.5 85.5,240.5C 85.5,245.167 85.5,249.833 85.5,254.5C 70.8333,254.5 56.1667,254.5 41.5,254.5C 41.5,249.833 41.5,245.167 41.5,240.5 Z"/></g>
<g><path style="opacity:0.99" fill="#6d16df" d="M 272.5,239.5 C 314.663,240.499 356.997,240.832 399.5,240.5C 404.167,244.5 408.5,248.833 412.5,253.5C 392.5,254.167 372.5,254.833 352.5,255.5C 342.529,247.556 332.529,247.556 322.5,255.5C 300.167,254.833 277.833,254.167 255.5,253.5C 260.943,248.605 266.61,243.938 272.5,239.5 Z"/></g>
<g><path style="opacity:0.97" fill="#6d17de" d="M 425.5,240.5 C 440.167,240.5 454.833,240.5 469.5,240.5C 469.5,245.167 469.5,249.833 469.5,254.5C 454.833,254.5 440.167,254.5 425.5,254.5C 425.5,249.833 425.5,245.167 425.5,240.5 Z"/></g>
<g><path style="opacity:0.962" fill="#6c17df" d="M 205.5,253.5 C 183.167,254.833 160.833,254.833 138.5,253.5C 160.94,240.214 183.273,240.214 205.5,253.5 Z"/></g>
<g><path style="opacity:0.988" fill="#6616df" d="M 138.5,253.5 C 160.833,254.833 183.167,254.833 205.5,253.5C 211.446,256.477 217.112,259.977 222.5,264C 230.181,267.534 237.514,266.867 244.5,262C 248.043,258.951 251.709,256.118 255.5,253.5C 277.833,254.167 300.167,254.833 322.5,255.5C 315.723,261.396 308.723,267.062 301.5,272.5C 239.833,271.833 178.167,271.167 116.5,270.5C 123.433,264.361 130.767,258.694 138.5,253.5 Z"/></g>
<g><path style="opacity:0.973" fill="#6717de" d="M 41.5,254.5 C 56.1667,254.5 70.8333,254.5 85.5,254.5C 85.5,259.5 85.5,264.5 85.5,269.5C 78.4018,270.798 71.0685,271.465 63.5,271.5C 55.9315,271.465 48.5982,270.798 41.5,269.5C 41.5,264.5 41.5,259.5 41.5,254.5 Z"/></g>
<g><path style="opacity:0.984" fill="#6616df" d="M 412.5,253.5 C 416.798,257.296 420.964,261.296 425,265.5C 425.499,261.848 425.665,258.182 425.5,254.5C 440.167,254.5 454.833,254.5 469.5,254.5C 469.5,259.5 469.5,264.5 469.5,269.5C 436.056,271.482 402.389,272.149 368.5,271.5C 362.833,266.5 357.5,261.167 352.5,255.5C 372.5,254.833 392.5,254.167 412.5,253.5 Z"/></g>
<g><path style="opacity:0.989" fill="#6016de" d="M 469.5,269.5 C 469.5,274.167 469.5,278.833 469.5,283.5C 440.725,285.479 411.725,286.146 382.5,285.5C 377.5,281.167 372.833,276.5 368.5,271.5C 402.389,272.149 436.056,271.482 469.5,269.5 Z"/></g>
<g><path style="opacity:0.994" fill="#6016de" d="M 116.5,270.5 C 178.167,271.167 239.833,271.833 301.5,272.5C 296.118,277.217 290.451,281.55 284.5,285.5C 222.664,285.832 160.998,285.499 99.5,284.5C 104.943,279.605 110.61,274.938 116.5,270.5 Z"/></g>
<g><path style="opacity:0.981" fill="#5a16de" d="M 41.5,269.5 C 48.5982,270.798 55.9315,271.465 63.5,271.5C 71.0685,271.465 78.4018,270.798 85.5,269.5C 85.3336,277.84 85.5003,286.173 86,294.5C 90.4405,291.036 94.9405,287.702 99.5,284.5C 160.998,285.499 222.664,285.832 284.5,285.5C 260.464,310.54 232.464,316.04 200.5,302C 193.668,297.416 186.668,293.083 179.5,289C 173.706,286.932 168.039,287.265 162.5,290C 157.339,293.666 152.339,297.499 147.5,301.5C 112.294,300.154 76.961,298.821 41.5,297.5C 41.5,288.167 41.5,278.833 41.5,269.5 Z"/></g>
<g><path style="opacity:0.987" fill="#5816de" d="M 469.5,283.5 C 469.5,292.833 469.5,302.167 469.5,311.5C 450.067,313.469 430.4,314.136 410.5,313.5C 400.833,304.5 391.5,295.167 382.5,285.5C 411.725,286.146 440.725,285.479 469.5,283.5 Z"/></g>
<g><path style="opacity:0.989" fill="#5417de" d="M 41.5,297.5 C 76.961,298.821 112.294,300.154 147.5,301.5C 142.524,305.47 137.524,309.47 132.5,313.5C 101.943,314.147 71.6092,313.48 41.5,311.5C 41.5,306.833 41.5,302.167 41.5,297.5 Z"/></g>
<g><path style="opacity:0.981" fill="#4e17de" d="M 41.5,311.5 C 71.6092,313.48 101.943,314.147 132.5,313.5C 126.146,319.183 119.48,324.516 112.5,329.5C 89.1667,329.5 65.8333,329.5 42.5,329.5C 42.7373,330.791 42.404,331.791 41.5,332.5C 41.5,325.5 41.5,318.5 41.5,311.5 Z"/></g>
<g><path style="opacity:0.972" fill="#4917de" d="M 469.5,311.5 C 469.5,323.167 469.5,334.833 469.5,346.5C 462.402,345.202 455.069,344.535 447.5,344.5C 439.931,344.535 432.598,345.202 425.5,346.5C 425.666,340.491 425.499,334.491 425,328.5C 419.963,323.631 415.13,318.631 410.5,313.5C 430.4,314.136 450.067,313.469 469.5,311.5 Z"/></g>
<g><path style="opacity:0.973" fill="#4317de" d="M 112.5,329.5 C 103.565,336.592 94.7315,343.925 86,351.5C 85.502,354.482 85.3354,357.482 85.5,360.5C 78.4018,359.202 71.0685,358.535 63.5,358.5C 55.9315,358.535 48.5982,359.202 41.5,360.5C 41.5,351.167 41.5,341.833 41.5,332.5C 42.404,331.791 42.7373,330.791 42.5,329.5C 65.8333,329.5 89.1667,329.5 112.5,329.5 Z"/></g>
<g><path style="opacity:0.986" fill="#3d17dd" d="M 469.5,346.5 C 469.748,355.54 469.415,364.54 468.5,373.5C 453.912,372.517 439.245,372.184 424.5,372.5C 425.442,363.887 425.775,355.221 425.5,346.5C 432.598,345.202 439.931,344.535 447.5,344.5C 455.069,344.535 462.402,345.202 469.5,346.5 Z"/></g>
<g><path style="opacity:0.987" fill="#3717dd" d="M 85.5,360.5 C 85.3693,370.177 87.036,379.511 90.5,388.5C 75.5,388.5 60.5,388.5 45.5,388.5C 42.792,379.5 41.4587,370.167 41.5,360.5C 48.5982,359.202 55.9315,358.535 63.5,358.5C 71.0685,358.535 78.4018,359.202 85.5,360.5 Z"/></g>
<g><path style="opacity:0.99" fill="#3018dc" d="M 424.5,372.5 C 439.245,372.184 453.912,372.517 468.5,373.5C 467.577,383.526 465.243,393.193 461.5,402.5C 444.833,402.5 428.167,402.5 411.5,402.5C 418.541,393.721 422.875,383.721 424.5,372.5 Z"/></g>
<g><path style="opacity:0.936" fill="#2417dd" d="M 45.5,388.5 C 60.5,388.5 75.5,388.5 90.5,388.5C 100.99,408.421 117.323,420.588 139.5,425C 216.833,425.667 294.167,425.667 371.5,425C 387.376,421.944 400.709,414.444 411.5,402.5C 428.167,402.5 444.833,402.5 461.5,402.5C 457.339,412.836 451.672,422.169 444.5,430.5C 318.5,429.167 192.5,429.167 66.5,430.5C 55.8158,418.465 48.8158,404.465 45.5,388.5 Z"/></g>
<g><path style="opacity:0.998" fill="#1c17dc" d="M 444.5,430.5 C 439.64,436.272 434.306,441.605 428.5,446.5C 313.167,445.167 197.833,445.167 82.5,446.5C 76.6937,441.605 71.3603,436.272 66.5,430.5C 192.5,429.167 318.5,429.167 444.5,430.5 Z"/></g>
<g><path style="opacity:0.997" fill="#1417dc" d="M 82.5,446.5 C 197.833,445.167 313.167,445.167 428.5,446.5C 414.101,457.81 397.767,464.976 379.5,468C 338.189,469.141 296.856,469.641 255.5,469.5C 214.144,469.641 172.811,469.141 131.5,468C 113.233,464.976 96.8994,457.81 82.5,446.5 Z"/></g>
</svg>
