<?xml version="1.0" encoding="UTF-8"?>
<!DOCTYPE svg PUBLIC "-//W3C//DTD SVG 1.1//EN" "http://www.w3.org/Graphics/SVG/1.1/DTD/svg11.dtd">
<svg xmlns="http://www.w3.org/2000/svg" version="1.1" width="512px" height="512px" style="shape-rendering:geometricPrecision; text-rendering:geometricPrecision; image-rendering:optimizeQuality; fill-rule:evenodd; clip-rule:evenodd" xmlns:xlink="http://www.w3.org/1999/xlink">
<g><path style="opacity:0.998" fill="#2196f3" d="M 232.5,-0.5 C 247.833,-0.5 263.167,-0.5 278.5,-0.5C 368.144,10.3879 435.644,54.7213 481,132.5C 497.695,163.971 507.861,197.304 511.5,232.5C 511.5,247.833 511.5,263.167 511.5,278.5C 500.612,368.144 456.279,435.644 378.5,481C 347.029,497.695 313.696,507.861 278.5,511.5C 263.167,511.5 247.833,511.5 232.5,511.5C 142.856,500.612 75.3562,456.279 30,378.5C 13.3053,347.029 3.1386,313.696 -0.5,278.5C -0.5,263.167 -0.5,247.833 -0.5,232.5C 10.3875,142.857 54.7208,75.3573 132.5,30C 163.971,13.3053 197.304,3.1386 232.5,-0.5 Z"/></g>
<g><path style="opacity:1" fill="#fefefe" d="M 137.5,140.5 C 215.501,140.333 293.501,140.5 371.5,141C 381.222,143.055 387.389,148.888 390,158.5C 390.667,207.167 390.667,255.833 390,304.5C 388.049,315.119 381.882,321.952 371.5,325C 324.167,325.333 276.833,325.667 229.5,326C 209.5,340 189.5,354 169.5,368C 163.833,371.333 158.167,371.333 152.5,368C 150.959,366.421 149.792,364.587 149,362.5C 148.5,350.171 148.333,337.838 148.5,325.5C 134.429,326.218 125.262,319.884 121,306.5C 120.333,257.167 120.333,207.833 121,158.5C 123.592,149.745 129.092,143.745 137.5,140.5 Z"/></g>
</svg>
