<?xml version="1.0" encoding="UTF-8"?>
<!DOCTYPE svg PUBLIC "-//W3C//DTD SVG 1.1//EN" "http://www.w3.org/Graphics/SVG/1.1/DTD/svg11.dtd">
<svg xmlns="http://www.w3.org/2000/svg" version="1.1" width="512px" height="512px" style="shape-rendering:geometricPrecision; text-rendering:geometricPrecision; image-rendering:optimizeQuality; fill-rule:evenodd; clip-rule:evenodd" xmlns:xlink="http://www.w3.org/1999/xlink">
<g><path style="opacity:0.992" fill="#bed8fb" d="M 232.5,-0.5 C 247.833,-0.5 263.167,-0.5 278.5,-0.5C 368.144,10.3879 435.644,54.7213 481,132.5C 497.695,163.971 507.861,197.304 511.5,232.5C 511.5,247.833 511.5,263.167 511.5,278.5C 505.481,337.613 482.148,388.613 441.5,431.5C 444.046,413.323 440.879,396.323 432,380.5C 428.664,375.998 424.831,371.998 420.5,368.5C 420.5,368.167 420.5,367.833 420.5,367.5C 451.936,300.11 454.769,231.444 429,161.5C 389.384,71.1046 320.884,17.7712 223.5,1.5C 226.5,0.833333 229.5,0.166667 232.5,-0.5 Z"/></g>
<g><path style="opacity:0.998" fill="#cae1fe" d="M 223.5,1.5 C 320.884,17.7712 389.384,71.1046 429,161.5C 454.769,231.444 451.936,300.11 420.5,367.5C 416.015,364.756 411.348,362.256 406.5,360C 387.907,353.853 369.241,348.02 350.5,342.5C 334.209,333.353 317.542,324.686 300.5,316.5C 299.893,316.624 299.56,316.957 299.5,317.5C 298.662,317.158 298.328,316.492 298.5,315.5C 298.5,305.5 298.5,295.5 298.5,285.5C 320.958,270.283 333.458,248.949 336,221.5C 341.358,220.151 346.024,217.485 350,213.5C 351.433,202.244 351.933,190.91 351.5,179.5C 351.667,160.164 351.5,140.83 351,121.5C 348.565,114.066 343.732,108.899 336.5,106C 331.799,105.072 327.132,104.072 322.5,103C 321.299,102.097 320.465,100.931 320,99.5C 317.974,79.3175 306.808,70.3175 286.5,72.5C 259.831,72.3334 233.165,72.5 206.5,73C 181.894,78.2721 166.394,93.1054 160,117.5C 159.5,138.164 159.333,158.831 159.5,179.5C 159.069,190.578 159.569,201.578 161,212.5C 164.301,217.486 168.968,220.152 175,220.5C 177.104,247.722 189.271,269.056 211.5,284.5C 212.499,294.812 212.832,305.145 212.5,315.5C 212.672,316.492 212.338,317.158 211.5,317.5C 211.44,316.957 211.107,316.624 210.5,316.5C 193.426,324.701 176.76,333.368 160.5,342.5C 142.374,347.486 124.374,352.986 106.5,359C 88.3496,366.484 76.5162,379.651 71,398.5C 69.5939,409.436 69.0939,420.436 69.5,431.5C 28.8524,388.613 5.51907,337.613 -0.5,278.5C -0.5,263.167 -0.5,247.833 -0.5,232.5C 10.7547,142.113 55.7547,74.28 134.5,29C 162.405,14.087 192.072,4.92029 223.5,1.5 Z"/></g>
<g><path style="opacity:1" fill="#375e7d" d="M 286.5,72.5 C 286.169,95.0062 286.503,117.34 287.5,139.5C 287.5,140.167 287.167,140.5 286.5,140.5C 262.901,146.473 239.568,145.639 216.5,138C 205.716,135.146 197.883,138.646 193,148.5C 196.116,174.216 184.95,184.549 159.5,179.5C 159.333,158.831 159.5,138.164 160,117.5C 166.394,93.1054 181.894,78.2721 206.5,73C 233.165,72.5 259.831,72.3334 286.5,72.5 Z"/></g>
<g><path style="opacity:1" fill="#2b4d66" d="M 286.5,72.5 C 306.808,70.3175 317.974,79.3175 320,99.5C 320.465,100.931 321.299,102.097 322.5,103C 327.132,104.072 331.799,105.072 336.5,106C 343.732,108.899 348.565,114.066 351,121.5C 351.5,140.83 351.667,160.164 351.5,179.5C 344.492,179.666 337.492,179.5 330.5,179C 323.983,176.807 320.15,172.307 319,165.5C 320.88,141.534 310.38,132.867 287.5,139.5C 286.503,117.34 286.169,95.0062 286.5,72.5 Z"/></g>
<g><path style="opacity:1" fill="#fedcce" d="M 286.5,140.5 C 286.944,174.862 286.444,209.195 285,243.5C 280.266,266.81 267.766,284.643 247.5,297C 265.796,298.844 282.796,295.011 298.5,285.5C 298.5,295.5 298.5,305.5 298.5,315.5C 285.239,331.269 271.739,346.936 258,362.5C 257.517,363.448 257.351,364.448 257.5,365.5C 256.833,365.5 256.167,365.5 255.5,365.5C 254.928,363.745 254.094,362.078 253,360.5C 239.264,345.604 225.764,330.604 212.5,315.5C 212.832,305.145 212.499,294.812 211.5,284.5C 189.271,269.056 177.104,247.722 175,220.5C 168.968,220.152 164.301,217.486 161,212.5C 159.569,201.578 159.069,190.578 159.5,179.5C 184.95,184.549 196.116,174.216 193,148.5C 197.883,138.646 205.716,135.146 216.5,138C 239.568,145.639 262.901,146.473 286.5,140.5 Z"/></g>
<g><path style="opacity:1" fill="#fecabe" d="M 351.5,179.5 C 351.933,190.91 351.433,202.244 350,213.5C 346.024,217.485 341.358,220.151 336,221.5C 333.458,248.949 320.958,270.283 298.5,285.5C 282.796,295.011 265.796,298.844 247.5,297C 267.766,284.643 280.266,266.81 285,243.5C 286.444,209.195 286.944,174.862 286.5,140.5C 287.167,140.5 287.5,140.167 287.5,139.5C 310.38,132.867 320.88,141.534 319,165.5C 320.15,172.307 323.983,176.807 330.5,179C 337.492,179.5 344.492,179.666 351.5,179.5 Z"/></g>
<g><path style="opacity:1" fill="#f3fafe" d="M 212.5,315.5 C 225.764,330.604 239.264,345.604 253,360.5C 254.094,362.078 254.928,363.745 255.5,365.5C 247.312,372.748 238.979,379.748 230.5,386.5C 226.981,389.279 222.981,390.112 218.5,389C 213.638,385.303 209.304,381.136 205.5,376.5C 202.715,361.509 202.881,346.509 206,331.5C 207.351,326.607 209.185,321.94 211.5,317.5C 212.338,317.158 212.672,316.492 212.5,315.5 Z"/></g>
<g><path style="opacity:1" fill="#f3f9fe" d="M 298.5,315.5 C 298.328,316.492 298.662,317.158 299.5,317.5C 307.052,333.674 309.552,350.674 307,368.5C 306.814,371.036 306.314,373.369 305.5,375.5C 301.844,379.964 297.844,384.131 293.5,388C 288.693,389.158 284.36,388.324 280.5,385.5C 272.833,378.833 265.167,372.167 257.5,365.5C 257.351,364.448 257.517,363.448 258,362.5C 271.739,346.936 285.239,331.269 298.5,315.5 Z"/></g>
<g><path style="opacity:1" fill="#365e7d" d="M 211.5,317.5 C 209.185,321.94 207.351,326.607 206,331.5C 202.881,346.509 202.715,361.509 205.5,376.5C 209.274,405.81 217.274,433.81 229.5,460.5C 231.02,465.893 232.854,471.226 235,476.5C 240.514,488.193 246.014,499.86 251.5,511.5C 249.833,511.5 248.167,511.5 246.5,511.5C 230.173,495.006 214.006,478.339 198,461.5C 186.178,448.013 175.511,433.68 166,418.5C 162.085,411.917 159.251,404.917 157.5,397.5C 157.763,394.972 158.596,392.639 160,390.5C 163,387.5 166,384.5 169,381.5C 171.856,377.361 172.19,373.028 170,368.5C 166.412,362.325 163.078,355.991 160,349.5C 159.297,347.071 159.463,344.738 160.5,342.5C 176.76,333.368 193.426,324.701 210.5,316.5C 211.107,316.624 211.44,316.957 211.5,317.5 Z"/></g>
<g><path style="opacity:1" fill="#375e7d" d="M 350.5,342.5 C 351.537,344.738 351.703,347.071 351,349.5C 346.591,357.646 342.758,365.979 339.5,374.5C 339.763,377.028 340.596,379.361 342,381.5C 346.418,385.247 350.084,389.58 353,394.5C 353.469,399.439 352.469,404.106 350,408.5C 343.853,420.966 336.52,432.633 328,443.5C 313.526,460.767 298.36,477.433 282.5,493.5C 276.167,499.167 270.167,505.167 264.5,511.5C 262.833,511.5 261.167,511.5 259.5,511.5C 264.988,499.855 270.488,488.188 276,476.5C 278.146,471.226 279.98,465.893 281.5,460.5C 293.933,433.521 301.933,405.187 305.5,375.5C 306.314,373.369 306.814,371.036 307,368.5C 309.552,350.674 307.052,333.674 299.5,317.5C 299.56,316.957 299.893,316.624 300.5,316.5C 317.542,324.686 334.209,333.353 350.5,342.5 Z"/></g>
<g><path style="opacity:0.997" fill="#4a80a9" d="M 160.5,342.5 C 159.463,344.738 159.297,347.071 160,349.5C 163.078,355.991 166.412,362.325 170,368.5C 172.19,373.028 171.856,377.361 169,381.5C 166,384.5 163,387.5 160,390.5C 158.596,392.639 157.763,394.972 157.5,397.5C 159.251,404.917 162.085,411.917 166,418.5C 175.511,433.68 186.178,448.013 198,461.5C 214.006,478.339 230.173,495.006 246.5,511.5C 241.833,511.5 237.167,511.5 232.5,511.5C 168.17,504.834 113.837,478.167 69.5,431.5C 69.0939,420.436 69.5939,409.436 71,398.5C 76.5162,379.651 88.3496,366.484 106.5,359C 124.374,352.986 142.374,347.486 160.5,342.5 Z"/></g>
<g><path style="opacity:1" fill="#497fa9" d="M 350.5,342.5 C 369.241,348.02 387.907,353.853 406.5,360C 411.348,362.256 416.015,364.756 420.5,367.5C 420.5,367.833 420.5,368.167 420.5,368.5C 390.2,427.131 344.533,469.131 283.5,494.5C 282.893,494.376 282.56,494.043 282.5,493.5C 298.36,477.433 313.526,460.767 328,443.5C 336.52,432.633 343.853,420.966 350,408.5C 352.469,404.106 353.469,399.439 353,394.5C 350.084,389.58 346.418,385.247 342,381.5C 340.596,379.361 339.763,377.028 339.5,374.5C 342.758,365.979 346.591,357.646 351,349.5C 351.703,347.071 351.537,344.738 350.5,342.5 Z"/></g>
<g><path style="opacity:1" fill="#dd646f" d="M 255.5,365.5 C 256.167,365.5 256.833,365.5 257.5,365.5C 265.167,372.167 272.833,378.833 280.5,385.5C 276.519,391.475 272.186,397.142 267.5,402.5C 259.5,402.5 251.5,402.5 243.5,402.5C 239.177,397.206 234.844,391.873 230.5,386.5C 238.979,379.748 247.312,372.748 255.5,365.5 Z"/></g>
<g><path style="opacity:0.993" fill="#407093" d="M 420.5,368.5 C 424.831,371.998 428.664,375.998 432,380.5C 440.879,396.323 444.046,413.323 441.5,431.5C 396.908,478.461 342.241,505.128 277.5,511.5C 273.167,511.5 268.833,511.5 264.5,511.5C 270.167,505.167 276.167,499.167 282.5,493.5C 282.56,494.043 282.893,494.376 283.5,494.5C 344.533,469.131 390.2,427.131 420.5,368.5 Z"/></g>
<g><path style="opacity:1" fill="#e3f4fd" d="M 205.5,376.5 C 209.304,381.136 213.638,385.303 218.5,389C 222.981,390.112 226.981,389.279 230.5,386.5C 234.844,391.873 239.177,397.206 243.5,402.5C 238.523,421.74 233.857,441.074 229.5,460.5C 217.274,433.81 209.274,405.81 205.5,376.5 Z"/></g>
<g><path style="opacity:1" fill="#e3f4fd" d="M 305.5,375.5 C 301.933,405.187 293.933,433.521 281.5,460.5C 277.143,441.074 272.477,421.74 267.5,402.5C 272.186,397.142 276.519,391.475 280.5,385.5C 284.36,388.324 288.693,389.158 293.5,388C 297.844,384.131 301.844,379.964 305.5,375.5 Z"/></g>
<g><path style="opacity:1" fill="#e17f85" d="M 243.5,402.5 C 251.5,402.5 259.5,402.5 267.5,402.5C 272.477,421.74 277.143,441.074 281.5,460.5C 279.98,465.893 278.146,471.226 276,476.5C 270.488,488.188 264.988,499.855 259.5,511.5C 256.833,511.5 254.167,511.5 251.5,511.5C 246.014,499.86 240.514,488.193 235,476.5C 232.854,471.226 231.02,465.893 229.5,460.5C 233.857,441.074 238.523,421.74 243.5,402.5 Z"/></g>
</svg>
