<?xml version="1.0" encoding="UTF-8"?>
<!DOCTYPE svg PUBLIC "-//W3C//DTD SVG 1.1//EN" "http://www.w3.org/Graphics/SVG/1.1/DTD/svg11.dtd">
<svg xmlns="http://www.w3.org/2000/svg" version="1.1" width="512px" height="512px" style="shape-rendering:geometricPrecision; text-rendering:geometricPrecision; image-rendering:optimizeQuality; fill-rule:evenodd; clip-rule:evenodd" xmlns:xlink="http://www.w3.org/1999/xlink">
<g><path style="opacity:0.996" fill="#4294ff" d="M 243.5,25.5 C 336.849,24.5732 407.683,63.5732 456,142.5C 496.424,220.897 495.091,298.563 452,375.5C 406.004,446.195 340.504,482.862 255.5,485.5C 167.291,482.338 100.458,443.338 55,368.5C 14.5412,290.102 15.8746,212.435 59,135.5C 102.309,68.746 163.809,32.0794 243.5,25.5 Z"/></g>
<g><path style="opacity:1" fill="#ecf2ff" d="M 248.5,127.5 C 275.339,126.838 288.172,139.838 287,166.5C 280.734,184.887 267.901,193.054 248.5,191C 230.128,184.772 221.961,171.938 224,152.5C 227.683,139.651 235.85,131.318 248.5,127.5 Z"/></g>
<g><path style="opacity:1" fill="#edf2ff" d="M 239.5,223.5 C 250.172,223.333 260.839,223.5 271.5,224C 279.333,226.5 284.5,231.667 287,239.5C 287.667,285.5 287.667,331.5 287,377.5C 284.833,386.333 279.333,391.833 270.5,394C 259.427,394.931 248.427,394.597 237.5,393C 230.339,390.192 225.839,385.026 224,377.5C 223.333,331.5 223.333,285.5 224,239.5C 226.685,231.65 231.852,226.316 239.5,223.5 Z"/></g>
</svg>
