<?xml version="1.0" encoding="UTF-8"?>
<!DOCTYPE svg PUBLIC "-//W3C//DTD SVG 1.1//EN" "http://www.w3.org/Graphics/SVG/1.1/DTD/svg11.dtd">
<svg xmlns="http://www.w3.org/2000/svg" version="1.1" width="512px" height="512px" style="shape-rendering:geometricPrecision; text-rendering:geometricPrecision; image-rendering:optimizeQuality; fill-rule:evenodd; clip-rule:evenodd" xmlns:xlink="http://www.w3.org/1999/xlink">
<g><path style="opacity:0.992" fill="#93c6ed" d="M 233.5,-0.5 C 240.833,-0.5 248.167,-0.5 255.5,-0.5C 255.5,170.167 255.5,340.833 255.5,511.5C 248.167,511.5 240.833,511.5 233.5,511.5C 135.22,499.033 64.3865,448.366 21,359.5C 9.44633,333.197 2.27966,305.864 -0.5,277.5C -0.5,262.833 -0.5,248.167 -0.5,233.5C 11.967,135.22 62.6336,64.3865 151.5,21C 177.803,9.44633 205.136,2.27966 233.5,-0.5 Z"/></g>
<g><path style="opacity:1" fill="#78b8ea" d="M 255.5,-0.5 C 262.833,-0.5 270.167,-0.5 277.5,-0.5C 375.78,11.967 446.613,62.6336 490,151.5C 501.554,177.803 508.72,205.136 511.5,233.5C 511.5,248.167 511.5,262.833 511.5,277.5C 499.033,375.78 448.366,446.613 359.5,490C 333.197,501.554 305.864,508.72 277.5,511.5C 270.167,511.5 262.833,511.5 255.5,511.5C 255.5,340.833 255.5,170.167 255.5,-0.5 Z"/></g>
<g><path style="opacity:1" fill="#59a8e6" d="M 237.5,32.5 C 238.5,32.5 239.5,32.5 240.5,32.5C 240.5,61.5 240.5,90.5 240.5,119.5C 217.824,119.833 195.157,119.5 172.5,118.5C 179.887,97.0534 190.387,77.3868 204,59.5C 213.282,48.0404 224.448,39.0404 237.5,32.5 Z"/></g>
<g><path style="opacity:1" fill="#3a99e1" d="M 270.5,32.5 C 286.345,38.4982 299.179,48.4982 309,62.5C 321.316,79.9625 331.149,98.7959 338.5,119C 315.836,119.5 293.169,119.667 270.5,119.5C 270.5,90.5 270.5,61.5 270.5,32.5 Z"/></g>
<g><path style="opacity:1" fill="#3a99e1" d="M 332.5,44.5 C 332.735,43.9033 333.235,43.5699 334,43.5C 374.846,59.3295 408.679,84.4962 435.5,119C 413.826,119.833 392.159,119.666 370.5,118.5C 361.995,91.4857 349.328,66.8191 332.5,44.5 Z"/></g>
<g><path style="opacity:1" fill="#59a8e6" d="M 175.5,43.5 C 176.552,43.3505 177.552,43.5172 178.5,44C 169.484,55.3605 161.651,67.5271 155,80.5C 149.149,92.8854 143.982,105.552 139.5,118.5C 118.174,119.666 96.8411,119.833 75.5,119C 102.398,85.2629 135.732,60.0963 175.5,43.5 Z"/></g>
<g><path style="opacity:1" fill="#59a8e6" d="M 55.5,149.5 C 80.5,149.5 105.5,149.5 130.5,149.5C 124.571,179.529 120.904,209.862 119.5,240.5C 89.8333,240.5 60.1667,240.5 30.5,240.5C 31.3531,218.086 35.8531,196.419 44,175.5C 47.7419,166.767 51.5752,158.101 55.5,149.5 Z"/></g>
<g><path style="opacity:1" fill="#59a8e6" d="M 161.5,149.5 C 187.833,149.5 214.167,149.5 240.5,149.5C 240.5,179.833 240.5,210.167 240.5,240.5C 210.167,240.5 179.833,240.5 149.5,240.5C 150.784,209.796 154.784,179.463 161.5,149.5 Z"/></g>
<g><path style="opacity:1" fill="#3a99e1" d="M 270.5,149.5 C 296.175,149.167 321.842,149.5 347.5,150.5C 354.929,180.029 358.929,210.029 359.5,240.5C 329.833,240.5 300.167,240.5 270.5,240.5C 270.5,210.167 270.5,179.833 270.5,149.5 Z"/></g>
<g><path style="opacity:1" fill="#3a99e1" d="M 379.5,149.5 C 404.842,149.167 430.175,149.5 455.5,150.5C 470.692,178.604 479.026,208.604 480.5,240.5C 450.5,240.5 420.5,240.5 390.5,240.5C 389.683,209.812 386.016,179.478 379.5,149.5 Z"/></g>
<g><path style="opacity:1" fill="#59a8e6" d="M 30.5,270.5 C 60.5,270.5 90.5,270.5 120.5,270.5C 120.526,300.96 124.193,330.96 131.5,360.5C 106.167,361.833 80.8333,361.833 55.5,360.5C 40.9302,332.219 32.5968,302.219 30.5,270.5 Z"/></g>
<g><path style="opacity:1" fill="#59a8e6" d="M 150.5,270.5 C 180.5,270.5 210.5,270.5 240.5,270.5C 240.5,300.833 240.5,331.167 240.5,361.5C 214.167,361.5 187.833,361.5 161.5,361.5C 158.758,347.247 156.258,332.913 154,318.5C 151.9,302.563 150.733,286.563 150.5,270.5 Z"/></g>
<g><path style="opacity:1" fill="#3a99e1" d="M 270.5,270.5 C 300.167,270.5 329.833,270.5 359.5,270.5C 359.032,300.987 355.032,330.987 347.5,360.5C 321.842,361.5 296.175,361.833 270.5,361.5C 270.5,331.167 270.5,300.833 270.5,270.5 Z"/></g>
<g><path style="opacity:1" fill="#3a99e1" d="M 390.5,270.5 C 420.5,270.5 450.5,270.5 480.5,270.5C 478.679,302.298 470.346,332.298 455.5,360.5C 430.175,361.5 404.842,361.833 379.5,361.5C 385.983,331.522 389.65,301.188 390.5,270.5 Z"/></g>
<g><path style="opacity:1" fill="#59a8e6" d="M 75.5,392.5 C 96.6627,391.337 117.996,391.171 139.5,392C 148.355,418.879 161.022,443.712 177.5,466.5C 177.167,466.833 176.833,467.167 176.5,467.5C 136.229,451.207 102.562,426.207 75.5,392.5 Z"/></g>
<g><path style="opacity:1" fill="#59a8e6" d="M 172.5,392.5 C 194.994,391.503 217.661,391.169 240.5,391.5C 240.5,420.5 240.5,449.5 240.5,478.5C 233.141,476.32 226.474,472.82 220.5,468C 206.003,455.502 194.503,440.668 186,423.5C 180.99,413.272 176.49,402.939 172.5,392.5 Z"/></g>
<g><path style="opacity:1" fill="#3a99e1" d="M 270.5,391.5 C 293.169,391.333 315.836,391.5 338.5,392C 331.149,412.204 321.316,431.037 309,448.5C 299.233,462.277 286.567,472.277 271,478.5C 270.5,449.502 270.333,420.502 270.5,391.5 Z"/></g>
<g><path style="opacity:1" fill="#3a99e1" d="M 370.5,391.5 C 392.169,391.333 413.836,391.5 435.5,392C 410.227,424.601 378.56,448.934 340.5,465C 337.911,466.314 335.244,466.981 332.5,467C 349.521,444.126 362.187,418.959 370.5,391.5 Z"/></g>
</svg>
