<?xml version="1.0" encoding="UTF-8"?>
<!DOCTYPE svg PUBLIC "-//W3C//DTD SVG 1.1//EN" "http://www.w3.org/Graphics/SVG/1.1/DTD/svg11.dtd">
<svg xmlns="http://www.w3.org/2000/svg" version="1.1" width="256px" height="256px" style="shape-rendering:geometricPrecision; text-rendering:geometricPrecision; image-rendering:optimizeQuality; fill-rule:evenodd; clip-rule:evenodd" xmlns:xlink="http://www.w3.org/1999/xlink">
<g><path style="opacity:0.708" fill="#046fba" d="M 133.5,78.5 C 133.167,79.5 132.5,80.1667 131.5,80.5C 128.732,75.7354 126.232,70.7354 124,65.5C 123,64.8333 122,64.1667 121,63.5C 114.792,70.0392 108.959,76.8725 103.5,84C 104.293,85.0852 104.96,86.2519 105.5,87.5C 109.445,88.4909 113.445,88.8242 117.5,88.5C 116.694,89.7281 115.694,90.7281 114.5,91.5C 111.428,91.1826 108.428,91.5159 105.5,92.5C 106.243,93.1818 106.909,93.8485 107.5,94.5C 107.167,95.5 106.5,96.1667 105.5,96.5C 103.319,96.2837 101.653,97.117 100.5,99C 97.2397,99.7835 94.0731,99.6168 91,98.5C 85.6237,104.372 80.457,110.372 75.5,116.5C 69.7446,119.213 64.0779,122.213 58.5,125.5C 57.4222,114.426 62.4222,110.259 73.5,113C 78.5,107.333 83.5,101.667 88.5,96C 87.5704,95.0093 86.4038,94.5093 85,94.5C 73.7681,96.9331 62.6014,99.5997 51.5,102.5C 51.0723,106.587 49.0723,109.587 45.5,111.5C 45.1667,112.5 44.8333,113.5 44.5,114.5C 45.5948,120.832 46.5948,127.165 47.5,133.5C 46.391,133.557 45.391,133.89 44.5,134.5C 43.1718,127.214 42.0052,119.88 41,112.5C 39.2889,120.814 39.1222,129.147 40.5,137.5C 39.609,138.11 38.609,138.443 37.5,138.5C 36.2338,130.67 36.2338,122.837 37.5,115C 35.723,111.868 33.8896,108.702 32,105.5C 31.1587,97.8277 34.6587,93.4944 42.5,92.5C 51.7386,70.2668 67.0719,53.9334 88.5,43.5C 88.7946,33.3644 93.7946,29.5311 103.5,32C 108.108,35.5301 109.608,40.0301 108,45.5C 111.167,48 114.333,50.5 117.5,53C 125.577,52.0681 128.577,55.4014 126.5,63C 128.982,68.1289 131.316,73.2956 133.5,78.5 Z M 89.5,45.5 C 90.0431,45.56 90.3764,45.8933 90.5,46.5C 76.52,62.9811 62.3534,79.3144 48,95.5C 47.2496,94.8742 46.4162,94.3742 45.5,94C 54.7782,72.8911 69.4448,56.7244 89.5,45.5 Z M 103.5,48.5 C 107.217,49.5274 110.55,51.3607 113.5,54C 116.813,55.9364 117.979,58.7697 117,62.5C 111.49,68.8738 105.99,75.2071 100.5,81.5C 99.914,81.2907 99.414,80.9574 99,80.5C 98.5026,70.4586 99.0026,60.4586 100.5,50.5C 101.739,50.0576 102.739,49.3909 103.5,48.5 Z M 92.5,49.5 C 95.9496,49.5726 97.283,51.4059 96.5,55C 95.834,62.4876 95.334,69.9876 95,77.5C 94.7508,78.624 94.2508,79.624 93.5,80.5C 88.9122,82.256 86.4122,85.5894 86,90.5C 74.8869,93.2362 63.7202,95.9029 52.5,98.5C 51.8333,98.1667 51.1667,97.8333 50.5,97.5C 64.8951,81.7765 78.8951,65.7765 92.5,49.5 Z"/></g>
<g><path style="opacity:0.606" fill="#046fbb" d="M 144.5,34.5 C 149.895,33.5548 151.561,35.5548 149.5,40.5C 144.321,41.6467 142.654,39.6467 144.5,34.5 Z"/></g>
<g><path style="opacity:0.637" fill="#066fba" d="M 179.5,47.5 C 184.586,49.8476 184.753,52.5142 180,55.5C 175.536,53.008 175.369,50.3414 179.5,47.5 Z"/></g>
<g><path style="opacity:0.72" fill="#066eba" d="M 147.5,53.5 C 154.112,53.406 156.278,56.406 154,62.5C 149.574,65.1338 146.407,63.9671 144.5,59C 145.124,56.9149 146.124,55.0816 147.5,53.5 Z"/></g>
<g><path style="opacity:0.622" fill="#086dba" d="M 192.5,67.5 C 198.126,67.2643 199.46,69.431 196.5,74C 195.101,74.5946 193.768,74.4279 192.5,73.5C 191.306,71.4844 191.306,69.4844 192.5,67.5 Z"/></g>
<g><path style="opacity:0.683" fill="#096db9" d="M 190.5,143.5 C 189.609,144.11 188.609,144.443 187.5,144.5C 187.832,132.814 187.499,121.148 186.5,109.5C 184.039,108.693 181.706,109.193 179.5,111C 174.672,114.581 169.672,117.915 164.5,121C 163.549,121.718 163.383,122.551 164,123.5C 171.005,131.338 178.172,139.004 185.5,146.5C 184.5,147.167 183.5,147.833 182.5,148.5C 175.494,141.161 168.494,133.827 161.5,126.5C 157.902,135.891 155.402,145.557 154,155.5C 160.144,155.746 166.311,155.079 172.5,153.5C 171.789,155.03 170.789,156.363 169.5,157.5C 165.109,158.008 160.775,158.842 156.5,160C 157.276,161.77 157.11,163.603 156,165.5C 153.456,167.267 150.956,168.934 148.5,170.5C 147.391,170.557 146.391,170.89 145.5,171.5C 145.33,170.178 145.663,169.011 146.5,168C 142.446,164.52 141.779,160.52 144.5,156C 142.467,152.102 140.3,148.268 138,144.5C 136.329,155.722 135.496,167.055 135.5,178.5C 134.167,178.833 132.833,179.167 131.5,179.5C 132.679,168.241 133.179,156.908 133,145.5C 125.112,155.722 117.612,166.222 110.5,177C 113.167,180 113.167,183 110.5,186C 111.965,187.774 113.298,189.608 114.5,191.5C 113.391,191.557 112.391,191.89 111.5,192.5C 110.163,191.685 109.163,190.518 108.5,189C 102.984,189.869 99.3171,187.702 97.5,182.5C 84.2543,179.238 70.921,176.738 57.5,175C 72.3902,182.941 87.0569,191.108 101.5,199.5C 99.9731,199.427 98.9731,200.094 98.5,201.5C 85.8605,194.512 73.1938,187.512 60.5,180.5C 60.1667,180.667 59.8333,180.833 59.5,181C 67.873,191.211 77.873,199.378 89.5,205.5C 89.1667,206.5 88.5,207.167 87.5,207.5C 73.6639,201.069 62.3306,191.569 53.5,179C 43.5691,178.891 40.9024,174.391 45.5,165.5C 41.6157,156.848 38.9491,147.848 37.5,138.5C 38.609,138.443 39.609,138.11 40.5,137.5C 42.0893,146.102 44.5893,154.435 48,162.5C 47.0755,153.189 45.9088,143.855 44.5,134.5C 45.391,133.89 46.391,133.557 47.5,133.5C 48.8401,143.554 50.5067,153.554 52.5,163.5C 56.2277,153.316 59.5611,142.983 62.5,132.5C 61.1491,130.156 59.8157,127.822 58.5,125.5C 64.0779,122.213 69.7446,119.213 75.5,116.5C 76.0668,118.03 76.7334,119.53 77.5,121C 82.5073,122.255 87.5073,122.422 92.5,121.5C 94.8428,115.993 99.0095,112.993 105,112.5C 107.822,113.451 110.655,113.951 113.5,114C 116.167,111 118.833,108 121.5,105C 115.978,102.407 110.645,99.5739 105.5,96.5C 106.5,96.1667 107.167,95.5 107.5,94.5C 113.025,96.6689 118.358,99.3355 123.5,102.5C 127.482,100.052 129.982,96.7191 131,92.5C 125.593,91.5268 120.093,91.1934 114.5,91.5C 115.694,90.7281 116.694,89.7281 117.5,88.5C 122.167,88.5 126.833,88.5 131.5,88.5C 132.63,85.8033 132.63,83.1367 131.5,80.5C 132.5,80.1667 133.167,79.5 133.5,78.5C 135.389,81.939 138.389,83.939 142.5,84.5C 147.333,81.9179 152,79.0845 156.5,76C 157.095,70.4068 160.095,68.4068 165.5,70C 166.754,73.6181 168.254,77.1181 170,80.5C 175.167,85.6667 180.333,90.8333 185.5,96C 194.469,94.9718 197.635,98.8051 195,107.5C 193.915,108.293 192.748,108.96 191.5,109.5C 190.501,120.814 190.168,132.147 190.5,143.5 Z M 158.5,78.5 C 159.289,78.7828 159.956,79.2828 160.5,80C 158.843,90.395 157.677,100.895 157,111.5C 156.952,114.329 155.952,116.663 154,118.5C 144.958,114.062 136.125,109.229 127.5,104C 129.5,101.667 131.5,99.3333 133.5,97C 141.064,98.4581 144.897,95.2914 145,87.5C 149.824,84.8487 154.324,81.8487 158.5,78.5 Z M 163.5,79.5 C 170.224,85.7213 176.891,92.2213 183.5,99C 182.833,101.333 182.167,103.667 181.5,106C 175.085,110.291 168.585,114.458 162,118.5C 160.701,117.91 159.868,116.91 159.5,115.5C 160.966,103.511 162.299,91.5106 163.5,79.5 Z M 123.5,107.5 C 132.738,111.119 141.738,115.285 150.5,120C 152.211,121.133 152.711,122.633 152,124.5C 147.636,127.696 143.136,130.696 138.5,133.5C 136.031,131.993 133.865,132.327 132,134.5C 127.517,132.337 123.017,130.17 118.5,128C 117.912,124.402 116.912,120.902 115.5,117.5C 118.175,114.136 120.842,110.803 123.5,107.5 Z M 76.5,124.5 C 81.5504,124.876 86.5504,125.542 91.5,126.5C 92.4825,130.983 94.8159,134.483 98.5,137C 96.2684,142.524 93.935,148.024 91.5,153.5C 89.8333,154.833 88.1667,154.833 86.5,153.5C 82.2935,145.586 77.9602,137.753 73.5,130C 75.16,128.512 76.16,126.679 76.5,124.5 Z M 154.5,126.5 C 155.88,126.962 156.547,127.962 156.5,129.5C 154.025,137.734 152.025,146.068 150.5,154.5C 149.325,154.719 148.325,154.386 147.5,153.5C 145.582,149.996 143.416,146.663 141,143.5C 140.792,141.141 140.626,138.974 140.5,137C 145.414,133.723 150.08,130.223 154.5,126.5 Z M 66.5,131.5 C 68.7224,131.178 70.5557,131.845 72,133.5C 75.4117,140.658 79.0784,147.658 83,154.5C 83.7595,157.555 82.9261,160.055 80.5,162C 72.6163,164.095 64.783,166.262 57,168.5C 56.3076,167.975 55.8076,167.308 55.5,166.5C 59.0173,154.757 62.684,143.09 66.5,131.5 Z M 116.5,131.5 C 120.638,132.77 124.638,134.437 128.5,136.5C 129.521,137.002 129.688,137.668 129,138.5C 118,144.833 107,151.167 96,157.5C 95.1301,156.892 94.6301,156.059 94.5,155C 96.6667,149.833 98.8333,144.667 101,139.5C 107.802,139.85 112.968,137.183 116.5,131.5 Z M 128.5,142.5 C 129.239,142.369 129.906,142.536 130.5,143C 122.973,153.027 115.64,163.194 108.5,173.5C 104.614,173.861 101.281,175.361 98.5,178C 85.415,176.43 72.415,174.096 59.5,171C 67.4016,168.955 75.2349,166.789 83,164.5C 89.7203,170.401 94.5537,169.067 97.5,160.5C 108.06,154.726 118.393,148.726 128.5,142.5 Z"/></g>
<g><path style="opacity:0.72" fill="#0b6cb9" d="M 225.5,89.5 C 232.745,89.5552 234.745,92.7218 231.5,99C 222.678,99.8396 220.678,96.6729 225.5,89.5 Z"/></g>
<g><path style="opacity:0.658" fill="#0c6db8" d="M 221.5,123.5 C 219.469,125.522 217.135,127.189 214.5,128.5C 214.476,123.165 216.81,121.499 221.5,123.5 Z"/></g>
<g><path style="opacity:0.696" fill="#0e6cb8" d="M 221.5,123.5 C 224.247,124.973 225.081,127.306 224,130.5C 221.875,131.484 220.708,133.15 220.5,135.5C 218.673,150.65 213.673,164.65 205.5,177.5C 209.075,184.017 207.742,189.184 201.5,193C 198.123,193.369 194.79,193.369 191.5,193C 178.286,205.607 162.619,213.44 144.5,216.5C 143.819,224.679 139.319,229.012 131,229.5C 123.856,228.525 119.356,224.525 117.5,217.5C 106.813,215.938 96.8133,212.604 87.5,207.5C 88.5,207.167 89.1667,206.5 89.5,205.5C 98.6696,210.042 108.336,212.542 118.5,213C 111.969,208.902 105.302,205.069 98.5,201.5C 98.9731,200.094 99.9731,199.427 101.5,199.5C 107.852,202.427 114.019,205.76 120,209.5C 120.833,208.667 121.667,207.833 122.5,207C 118.46,202.406 114.794,197.573 111.5,192.5C 112.391,191.89 113.391,191.557 114.5,191.5C 117.589,195.768 120.923,199.934 124.5,204C 126.488,204.18 128.488,204.014 130.5,203.5C 131.099,195.514 131.432,187.514 131.5,179.5C 132.833,179.167 134.167,178.833 135.5,178.5C 134.633,186.837 134.133,195.17 134,203.5C 137.768,192.686 141.602,182.019 145.5,171.5C 146.391,170.89 147.391,170.557 148.5,170.5C 145.237,181.956 141.57,193.289 137.5,204.5C 138.365,205.583 139.365,205.749 140.5,205C 154.551,189.738 168.717,174.571 183,159.5C 183.915,157.08 183.082,155.747 180.5,155.5C 176.841,156.276 173.175,156.943 169.5,157.5C 170.789,156.363 171.789,155.03 172.5,153.5C 175.522,153.196 178.522,152.696 181.5,152C 182.337,150.989 182.67,149.822 182.5,148.5C 183.5,147.833 184.5,147.167 185.5,146.5C 186.5,146.167 187.167,145.5 187.5,144.5C 188.609,144.443 189.609,144.11 190.5,143.5C 191.193,146.838 192.86,147.338 195.5,145C 201.705,139.291 208.039,133.791 214.5,128.5C 217.135,127.189 219.469,125.522 221.5,123.5 Z M 214.5,131.5 C 216.722,131.559 217.722,132.725 217.5,135C 215.432,149.206 210.599,162.373 203,174.5C 201.044,174.784 198.877,174.784 196.5,174.5C 195.556,169.224 194.223,164.057 192.5,159C 195.991,156.539 196.991,153.373 195.5,149.5C 201.854,143.478 208.187,137.478 214.5,131.5 Z M 186.5,159.5 C 188.124,159.36 189.29,160.027 190,161.5C 191.167,165.667 192.333,169.833 193.5,174C 192.044,175.797 190.544,177.631 189,179.5C 188.821,182.553 188.321,185.553 187.5,188.5C 172.47,195.099 157.637,202.099 143,209.5C 142.333,208.833 142.333,208.167 143,207.5C 157.707,191.629 172.207,175.629 186.5,159.5 Z M 185.5,193.5 C 173.408,204.045 159.408,210.545 143.5,213C 157.362,206.212 171.362,199.712 185.5,193.5 Z"/></g>
</svg>
