<?xml version="1.0" encoding="UTF-8"?>
<!DOCTYPE svg PUBLIC "-//W3C//DTD SVG 1.1//EN" "http://www.w3.org/Graphics/SVG/1.1/DTD/svg11.dtd">
<svg xmlns="http://www.w3.org/2000/svg" version="1.1" width="512px" height="512px" style="shape-rendering:geometricPrecision; text-rendering:geometricPrecision; image-rendering:optimizeQuality; fill-rule:evenodd; clip-rule:evenodd" xmlns:xlink="http://www.w3.org/1999/xlink">
<g><path style="opacity:0.997" fill="#0177cc" d="M 232.5,-0.5 C 247.833,-0.5 263.167,-0.5 278.5,-0.5C 368.144,10.3879 435.644,54.7213 481,132.5C 497.695,163.971 507.861,197.304 511.5,232.5C 511.5,247.833 511.5,263.167 511.5,278.5C 500.612,368.144 456.279,435.644 378.5,481C 347.029,497.695 313.696,507.861 278.5,511.5C 263.167,511.5 247.833,511.5 232.5,511.5C 142.856,500.612 75.3562,456.279 30,378.5C 13.3053,347.029 3.1386,313.696 -0.5,278.5C -0.5,263.167 -0.5,247.833 -0.5,232.5C 10.3875,142.857 54.7208,75.3573 132.5,30C 163.971,13.3053 197.304,3.1386 232.5,-0.5 Z"/></g>
<g><path style="opacity:1" fill="#fefefe" d="M 244.5,77.5 C 292.322,75.4735 325.155,96.4735 343,140.5C 353.399,179.968 343.565,213.468 313.5,241C 274.787,268.142 236.12,268.142 197.5,241C 164.178,209.878 155.678,173.045 172,130.5C 187.355,100.743 211.521,83.0762 244.5,77.5 Z"/></g>
<g><path style="opacity:1" fill="#fefefe" d="M 164.5,266.5 C 175.715,266.441 185.382,270.275 193.5,278C 234.78,299.949 276.114,299.949 317.5,278C 323.356,273.47 329.69,269.803 336.5,267C 345.71,266.07 353.71,268.737 360.5,275C 386.835,297.691 404.668,325.858 414,359.5C 416.139,369.737 413.805,378.737 407,386.5C 350.135,446.561 281.301,467.061 200.5,448C 160.727,436.041 127.56,414.208 101,382.5C 96.796,375.403 95.4627,367.736 97,359.5C 106.941,323.581 126.441,294.081 155.5,271C 158.592,269.454 161.592,267.954 164.5,266.5 Z"/></g>
</svg>
